<svg xmlns="http://www.w3.org/2000/svg" version="1.1" viewBox="0 0 1712 1728" width="428" height="432">
    <path transform="translate(1681)"
        d="m0 0 9 1 7 3 8 6 6 10 1 13-6 9-11 6-16 8-23 12-23 13-21 12-23 14-42 28-17 12-34 25-14 11-16 13-10 8-11 9-13 11-28 24-13 12-10 9-12 11-13 12-16 15-12 12-8 7-19 19-8 7-116 116-7 8-20 20-7 8-15 15-7 8-9 9-7 8-8 8-7 8-16 17-14 15-7 8-13 14-7 8-12 14-10 11-9 11-13 15-13 16-14 17-11 14-10 13-16 21-14 19-8 11-13 19-10 14-21 32-14 22-17 28-14 24-10 18-13 24-14 27-18 36-15 33-14 32-15 37-11 29-14 39-12 37-6 23-6 24-9 27-9 36-9 42-7 36-8 49-5 39-4 37-3 39-1 47v74l-3 8-7 8-7 3h-15l-10-5-4-5-5-13-4-16-3-19-4-18-5-13-12-22-20-40-14-32-18-43-20-50-18-43-15-33-16-33-13-24-11-15-11-13-12-14-11-12-33-33-8-7-14-12-14-11-20-15-27-18-22-13-23-12-25-12-25-10-8-2-26 1-22 4-11 3-7-1-2 1h-6l-6-1h-12l-8-2-8-1-13-7-8-9-2-6v-9l4-11 8-13 11-14 19-19 16-12 19-11 17-8 27-9 21-5 28-4 31-2 19 1 33 5 25 6 23 7 20 8 18 8 22 12 19 11 27 18 19 14 13 10 14 11 11 9 3 3h2l6-26 12-45 10-33 15-43 10-26 12-29 10-23 9-20 24-48 7-12 7-14 10-17 16-27 10-16 14-22 13-19 14-20 13-18 14-19 13-16 9-12 11-13 8-10 13-15 9-11 7-7 7-8 9-10 11-12 5-5 9-10 42-42 8-7 9-9h2l1-3 8-7 13-12 10-9 8-7 26-22 11-9 17-14 26-20 21-16 19-14 17-12 20-14 33-22 17-11 24-15 21-13 24-14 21-12 27-15 24-13 39-20 32-16 28-13 42-19 35-15 50-20 42-16 42-15 50-17 18-5 16 1 19-10z"
        fill="#124e73" />
</svg>